<svg width="400" height="338" viewBox="0 0 400 338" fill="none"
    xmlns="http://www.w3.org/2000/svg">
    <path d="M25.2 25.9C19.6 9.2 12.5 4.60001 0.5 2.10001H68.7L117.8 149L92.2 224.3L25.2 25.9ZM133.8 25.9C128.2 9.2 120.8 4.60001 109.1 2.10001H184.7C181.6 7.70001 181.6 14.4 185.9 27.7L226.3 148.7L200.7 224.6L133.8 25.9Z" fill="#524FA1"/>
    <path d="M399.1 170C393.9 197.8 366.1 219.4 326.6 220C350.1 218.8 363 201.5 363 187.6C363.3 168.5 354.7 156.7 315.5 136.4C278.5 119.1 245.1 101.8 245.5 62.7C245.8 26.6 272.7 1.30001 314.6 0.700012C288.7 2.90001 277.3 22.9 284.7 47.9C299.2 71.7 313.7 81.8 327.3 86.5C360.2 102.7 406.5 123.4 399.1 170Z" fill="#524FA1"/>
    <path d="M399.5 245.9H0.800049V278.7H399.5V245.9Z" fill="#FFCD5D"/>
    <path d="M6.59998 301.1H4.09998V336.6H6.59998V301.1Z" fill="#524FA1"/>
    <path d="M52.3 317.4C52.3 315.1 52.2 313.3 52.1 311.3H54.5L54.7 315.9H54.8C56.2 313.1 59.4 310.7 63.5 310.7C65.9 310.7 72.3 311.9 72.3 321.4V336.6H69.8V321.6C69.8 317 68 312.9 62.8 312.9C59.3 312.9 56.2 315.4 55.2 318.7C55 319.3 54.9 320.2 54.9 321V336.6H52.4V317.4H52.3Z" fill="#524FA1"/>
    <path d="M120.3 305.8V311.4H127.5V313.5H120.3V329.9C120.3 333.1 121.3 335.1 124 335.1C125.3 335.1 126.3 334.9 126.9 334.7L127.2 336.6C126.4 337 125.2 337.2 123.7 337.2C121.9 337.2 120.3 336.6 119.4 335.4C118.2 334.1 117.8 331.9 117.8 329.3V313.3H113.5V311.2H117.8V306.6L120.3 305.8Z" fill="#524FA1"/>
    <path d="M169.5 323.7C169.5 331.8 173.9 335 179.1 335C182.8 335 184.7 334.3 186.1 333.6L186.7 335.5C185.8 336 183.2 337.1 178.8 337.1C171.5 337.1 167 331.8 167 324.4C167 316 171.8 310.7 178.4 310.7C186.7 310.7 188.2 318.5 188.2 322.1C188.2 322.8 188.2 323.2 188.1 323.6H169.5V323.7ZM185.6 321.7C185.7 318.2 184.2 312.9 178.1 312.9C172.5 312.9 170.1 317.9 169.6 321.7H185.6Z" fill="#524FA1"/>
    <path d="M255.1 335.4C253.3 336.3 249.9 337.2 245.5 337.2C236.9 337.2 228.7 331.7 228.7 319.1C228.7 308.6 235.5 300.6 246.7 300.6C251.2 300.6 253.9 301.6 254.9 302.2L254.1 304.3C252.3 303.4 249.7 302.8 246.7 302.8C237.1 302.8 231.3 309 231.3 319.2C231.3 328.8 236.8 335 246.3 335C249.3 335 252.3 334.4 254.3 333.4L255.1 335.4Z" fill="#524FA1"/>
    <path d="M318.7 323.7C318.7 333.1 312.2 337.2 306.6 337.2C300.1 337.2 295 332.1 295 324.2C295 315.6 300.7 310.8 307 310.8C313.9 310.8 318.7 316 318.7 323.7ZM297.5 324C297.5 330.3 301.6 335.1 306.7 335.1C312 335.1 316.1 330.4 316.1 323.9C316.1 319.3 313.5 312.9 306.8 312.9C300.4 312.9 297.5 318.6 297.5 324Z" fill="#524FA1"/>
    <path d="M361.4 317.4C361.4 315.1 361.3 313.3 361.2 311.3H363.6L363.8 315.8H363.9C365.5 312.9 368 310.7 372.1 310.7C375.6 310.7 378.3 313 379.4 316.2H379.5C380.2 314.7 381.1 313.6 382.1 312.8C383.7 311.4 385.4 310.7 388.1 310.7C390.6 310.7 396.4 312.1 396.4 321.7V336.6H393.9V322C393.9 316.3 391.7 312.9 387.3 312.9C384.1 312.9 381.7 315.2 380.7 317.9C380.5 318.6 380.3 319.5 380.3 320.4V336.6H377.8V320.8C377.8 316.2 375.6 312.9 371.5 312.9C368.1 312.9 365.4 315.6 364.5 318.6C364.3 319.3 364.1 320.2 364.1 321V336.6H361.6V317.4H361.4Z" fill="#524FA1"/>
</svg>
